<svg width="128" height="41" viewBox="0 0 128 41" fill="none" xmlns="http://www.w3.org/2000/svg">
<rect y="0.5" width="40" height="40" rx="8" fill="#3C9AE2"/>
<path d="M23.7123 12.9593L20.5359 16.1357L12.5809 13.9813C12.36 13.926 12.1114 13.9536 11.9456 14.1194L10.1503 15.9148C9.84643 16.2186 9.92929 16.7434 10.2884 16.9367L16.3651 20.3066L13.5477 23.1239L10.7579 22.7649C10.5646 22.7372 10.3712 22.7649 10.2331 22.903L9.12827 24.0078C8.82444 24.3116 8.87968 24.8088 9.23876 25.0022L13.1057 27.1014L15.2326 30.996C15.4259 31.3551 15.8955 31.3827 16.1993 31.0789L17.3042 29.974C17.4423 29.8359 17.4975 29.6702 17.4699 29.4768L17.0832 26.6595L19.9006 23.8421L23.298 29.9464C23.4914 30.3055 23.9886 30.3607 24.2924 30.0569L26.0878 28.2615C26.2535 28.0958 26.3088 27.8748 26.2535 27.6538L24.0714 19.6713L27.2479 16.4948C28.2146 15.5281 29.1261 13.0698 28.1318 12.0754C27.165 11.1086 24.6791 11.9925 23.7123 12.9593Z" fill="white"/>
<path d="M52.3237 10.5H55.9706V16.5H59.5207V19.3387H55.9706V30.1452H52.3237V19.3387H50V16.5H52.3237V10.5Z" fill="#414950"/>
<path d="M65.041 16.5L65.3637 20.371L65.2346 19.8226C65.6219 19.0054 66.1491 18.3065 66.816 17.7258C67.5045 17.1237 68.2038 16.672 68.9138 16.371C69.6238 16.0484 70.2048 15.8871 70.6566 15.8871L70.4952 19.5C69.4625 19.414 68.5588 19.6075 67.7843 20.0806C67.0312 20.5323 66.4395 21.1344 66.0092 21.8871C65.6004 22.6398 65.396 23.4355 65.396 24.2742V30.1452H61.7814V16.5H65.041Z" fill="#414950"/>
<path d="M78.4323 30.5C77.1413 30.5 75.9687 30.2312 74.9144 29.6935C73.8817 29.1559 73.0641 28.3602 72.4617 27.3065C71.8592 26.2312 71.558 24.9086 71.558 23.3387C71.558 21.7903 71.87 20.4677 72.4939 19.371C73.1394 18.2527 73.9785 17.3925 75.0113 16.7903C76.0655 16.1882 77.2059 15.8871 78.4323 15.8871C79.7447 15.8871 80.799 16.1452 81.5951 16.6613C82.4127 17.1774 83.0474 17.7903 83.4992 18.5L83.3056 19.0161L83.6606 16.5H86.9848V30.1452H83.3701V26.8226L83.7251 27.6936C83.6391 27.8226 83.4669 28.0376 83.2088 28.3387C82.9506 28.6183 82.5956 28.9301 82.1437 29.2742C81.6919 29.6183 81.154 29.9086 80.53 30.1452C79.9276 30.3817 79.2283 30.5 78.4323 30.5ZM79.4327 27.5323C80.0782 27.5323 80.6591 27.414 81.1755 27.1774C81.7134 26.9409 82.1652 26.6075 82.531 26.1774C82.9183 25.7473 83.198 25.2312 83.3701 24.629V21.6613C83.198 21.1022 82.9183 20.6183 82.531 20.2097C82.1437 19.7796 81.6704 19.4462 81.111 19.2097C80.5731 18.9731 79.9706 18.8548 79.3036 18.8548C78.5721 18.8548 77.8944 19.0376 77.2704 19.4032C76.6465 19.7688 76.1408 20.2742 75.7536 20.9194C75.3878 21.5645 75.2049 22.3065 75.2049 23.1452C75.2049 23.9624 75.3985 24.7043 75.7858 25.371C76.1731 26.0376 76.6895 26.5645 77.335 26.9516C77.9804 27.3387 78.6797 27.5323 79.4327 27.5323Z" fill="#414950"/>
<path d="M96.5266 30.5L88.6842 16.5H92.9766L97.9144 26.7581L95.6875 26.6613L100.141 16.5H104.175L96.688 30.5H96.5266Z" fill="#414950"/>
<path d="M111.987 30.5C110.374 30.5 108.997 30.1882 107.856 29.5645C106.716 28.9409 105.844 28.0806 105.242 26.9839C104.64 25.8656 104.338 24.6075 104.338 23.2097C104.338 21.8333 104.683 20.5968 105.371 19.5C106.06 18.4032 106.985 17.5323 108.147 16.8871C109.33 16.2204 110.632 15.8871 112.052 15.8871C113.924 15.8871 115.462 16.4355 116.667 17.5323C117.893 18.6075 118.711 20.1344 119.12 22.1129L108.114 25.8226L107.275 23.7903L115.86 20.7258L115.118 21.1452C114.881 20.5 114.494 19.9409 113.956 19.4677C113.44 18.9946 112.708 18.7581 111.761 18.7581C111.008 18.7581 110.341 18.9409 109.76 19.3065C109.179 19.6505 108.717 20.1452 108.373 20.7903C108.05 21.414 107.888 22.1559 107.888 23.0161C107.888 23.8979 108.071 24.672 108.437 25.3387C108.803 26.0054 109.298 26.5215 109.922 26.8871C110.546 27.2312 111.256 27.4032 112.052 27.4032C112.611 27.4032 113.149 27.3065 113.665 27.1129C114.182 26.9194 114.666 26.6613 115.118 26.3387L116.764 29.0161C116.054 29.4677 115.268 29.8333 114.408 30.1129C113.569 30.371 112.762 30.5 111.987 30.5Z" fill="#414950"/>
<path d="M121.385 10.5H125V30.1452H121.385V10.5Z" fill="#414950"/>
</svg>
