<svg width="149" height="48" viewBox="0 0 149 48" fill="none" xmlns="http://www.w3.org/2000/svg">
<rect width="48" height="48" rx="8" fill="white"/>
<path d="M27.7123 16.4591L24.5359 19.6356L16.5809 17.4811C16.36 17.4259 16.1114 17.4535 15.9456 17.6192L14.1503 19.4146C13.8464 19.7185 13.9293 20.2433 14.2884 20.4366L20.3651 23.8064L17.5477 26.6238L14.7579 26.2647C14.5646 26.2371 14.3712 26.2647 14.2331 26.4028L13.1283 27.5077C12.8244 27.8115 12.8797 28.3087 13.2388 28.5021L17.1057 30.6013L19.2326 34.4959C19.4259 34.855 19.8955 34.8826 20.1993 34.5788L21.3042 33.4739C21.4423 33.3358 21.4975 33.1701 21.4699 32.9767L21.0832 30.1593L23.9006 27.342L27.298 33.4463C27.4914 33.8054 27.9886 33.8606 28.2924 33.5568L30.0878 31.7614C30.2535 31.5957 30.3088 31.3747 30.2535 31.1537L28.0714 23.1711L31.2479 19.9947C32.2146 19.0279 33.1261 16.5696 32.1318 15.5753C31.165 14.6085 28.6791 15.4924 27.7123 16.4591Z" fill="#3C9AE2"/>
<path d="M60.8194 12H65.2443V19.2H69.5518V22.6065H65.2443V35.5742H60.8194V22.6065H58V19.2H60.8194V12Z" fill="white"/>
<path d="M76.2497 19.2L76.6413 23.8452L76.4847 23.1871C76.9546 22.2065 77.5942 21.3677 78.4035 20.671C79.2389 19.9484 80.0873 19.4065 80.9488 19.0452C81.8103 18.6581 82.5151 18.4645 83.0633 18.4645L82.8675 22.8C81.6145 22.6968 80.518 22.929 79.5782 23.4968C78.6645 24.0387 77.9466 24.7613 77.4245 25.6645C76.9285 26.5677 76.6805 27.5226 76.6805 28.529V35.5742H72.2947V19.2H76.2497Z" fill="white"/>
<path d="M92.4978 36C90.9315 36 89.5087 35.6774 88.2295 35.0323C86.9765 34.3871 85.9844 33.4323 85.2535 32.1677C84.5225 30.8774 84.157 29.2903 84.157 27.4065C84.157 25.5484 84.5356 23.9613 85.2926 22.6452C86.0758 21.3032 87.0939 20.271 88.347 19.5484C89.6262 18.8258 91.0098 18.4645 92.4978 18.4645C94.0903 18.4645 95.3694 18.7742 96.3354 19.3935C97.3274 20.0129 98.0975 20.7484 98.6457 21.6L98.4108 22.2194L98.8415 19.2H102.875V35.5742H98.4891V31.5871L98.9198 32.6323C98.8154 32.7871 98.6066 33.0452 98.2933 33.4065C97.98 33.7419 97.5493 34.1161 97.0011 34.529C96.4528 34.9419 95.8002 35.2903 95.0431 35.5742C94.3122 35.8581 93.4637 36 92.4978 36ZM93.7117 32.4387C94.4949 32.4387 95.1998 32.2968 95.8263 32.0129C96.4789 31.729 97.0272 31.329 97.471 30.8129C97.9409 30.2968 98.2802 29.6774 98.4891 28.9548V25.3935C98.2802 24.7226 97.9409 24.1419 97.471 23.6516C97.0011 23.1355 96.4267 22.7355 95.748 22.4516C95.0953 22.1677 94.3644 22.0258 93.5551 22.0258C92.6675 22.0258 91.8452 22.2452 91.0881 22.6839C90.331 23.1226 89.7176 23.729 89.2477 24.5032C88.8039 25.2774 88.582 26.1677 88.582 27.1742C88.582 28.1548 88.8169 29.0452 89.2868 29.8452C89.7567 30.6452 90.3833 31.2774 91.1664 31.7419C91.9496 32.2065 92.798 32.4387 93.7117 32.4387Z" fill="white"/>
<path d="M114.452 36L104.937 19.2H110.145L116.136 31.5097L113.434 31.3936L118.838 19.2H123.733L114.648 36H114.452Z" fill="white"/>
<path d="M133.211 36C131.253 36 129.582 35.6258 128.199 34.8774C126.815 34.129 125.758 33.0968 125.027 31.7806C124.296 30.4387 123.931 28.929 123.931 27.2516C123.931 25.6 124.348 24.1161 125.184 22.8C126.019 21.4839 127.142 20.4387 128.551 19.6645C129.987 18.8645 131.566 18.4645 133.289 18.4645C135.561 18.4645 137.427 19.1226 138.889 20.4387C140.377 21.729 141.369 23.5613 141.865 25.9355L128.512 30.3871L127.494 27.9484L137.91 24.271L137.01 24.7742C136.722 24 136.252 23.329 135.6 22.7613C134.973 22.1935 134.086 21.9097 132.937 21.9097C132.023 21.9097 131.214 22.129 130.509 22.5677C129.804 22.9806 129.243 23.5742 128.825 24.3484C128.434 25.0968 128.238 25.9871 128.238 27.0194C128.238 28.0774 128.46 29.0065 128.904 29.8065C129.347 30.6065 129.948 31.2258 130.705 31.6645C131.462 32.0774 132.324 32.2839 133.289 32.2839C133.968 32.2839 134.621 32.1677 135.247 31.9355C135.874 31.7032 136.461 31.3935 137.01 31.0065L139.007 34.2194C138.145 34.7613 137.192 35.2 136.148 35.5355C135.13 35.8452 134.151 36 133.211 36Z" fill="white"/>
<path d="M144.614 12H149V35.5742H144.614V12Z" fill="white"/>
</svg>
